<svg width="145" height="100" viewBox="0 0 145 100" fill="none" xmlns="http://www.w3.org/2000/svg">
<rect x="1.5" y="1.5" width="142" height="97" rx="1.5" fill="#B7B7B7" stroke="#DDDDDD" stroke-width="3"/>
<path d="M47.808 31.144C46.432 32.744 44.72 34.36 42.672 35.992C40.624 37.624 38.384 39.176 35.952 40.648C33.52 42.088 31.024 43.368 28.464 44.488C28.24 44.04 27.936 43.528 27.552 42.952C27.168 42.344 26.768 41.768 26.352 41.224C25.936 40.648 25.52 40.152 25.104 39.736C27.76 38.712 30.336 37.448 32.832 35.944C35.328 34.44 37.6 32.84 39.648 31.144C41.696 29.416 43.36 27.72 44.64 26.056H50.448C51.792 27.592 53.264 29.032 54.864 30.376C56.496 31.688 58.192 32.904 59.952 34.024C61.712 35.144 63.52 36.152 65.376 37.048C67.264 37.912 69.152 38.648 71.04 39.256C70.368 39.96 69.712 40.776 69.072 41.704C68.432 42.632 67.872 43.512 67.392 44.344C65.088 43.352 62.704 42.152 60.24 40.744C57.776 39.304 55.456 37.752 53.28 36.088C51.104 34.424 49.28 32.776 47.808 31.144ZM37.248 46.408H58.368V50.536H37.248V46.408ZM44.928 35.752H50.88V42.232H44.928V35.752ZM28.656 65.56C30.48 65.4 32.528 65.24 34.8 65.08C37.104 64.888 39.52 64.696 42.048 64.504C44.576 64.28 47.088 64.056 49.584 63.832L49.68 68.92C47.312 69.144 44.912 69.368 42.48 69.592C40.08 69.848 37.76 70.072 35.52 70.264C33.312 70.488 31.28 70.68 29.424 70.84L28.656 65.56ZM49.488 55.912C51.216 58.824 53.824 61.144 57.312 62.872C60.832 64.568 65.088 65.704 70.08 66.28C69.696 66.696 69.28 67.192 68.832 67.768C68.384 68.376 67.968 68.984 67.584 69.592C67.2 70.232 66.88 70.808 66.624 71.32C63.072 70.744 59.904 69.848 57.12 68.632C54.336 67.416 51.92 65.88 49.872 64.024C47.824 62.136 46.08 59.864 44.64 57.208L49.488 55.912ZM63.648 54.904L67.824 58.36C66.608 59.192 65.312 60.024 63.936 60.856C62.56 61.656 61.184 62.408 59.808 63.112C58.432 63.784 57.136 64.392 55.92 64.936L52.512 61.816C53.696 61.24 54.96 60.568 56.304 59.8C57.648 59 58.976 58.184 60.288 57.352C61.6 56.488 62.72 55.672 63.648 54.904ZM37.248 39.4H62.256V57.64H37.248V53.176H56.4V43.912H37.248V39.4ZM33.648 39.4H39.36V66.232L33.648 66.808V39.4ZM74.352 43.048H117.552V48.232H74.352V43.048ZM77.52 34.12H114.864V39.208H77.52V34.12ZM82.656 52.264H105.216V57.448H82.656V52.264ZM102.624 36.376C103.552 39.096 104.768 41.64 106.272 44.008C107.808 46.376 109.616 48.488 111.696 50.344C113.808 52.168 116.16 53.624 118.752 54.712C118.336 55.064 117.888 55.528 117.408 56.104C116.928 56.648 116.464 57.224 116.016 57.832C115.6 58.408 115.248 58.952 114.96 59.464C112.144 58.088 109.632 56.328 107.424 54.184C105.216 52.04 103.296 49.576 101.664 46.792C100.032 44.008 98.656 40.984 97.536 37.72L102.624 36.376ZM79.776 28.504L84.576 26.776C85.056 27.448 85.536 28.2 86.016 29.032C86.496 29.832 86.928 30.632 87.312 31.432C87.728 32.232 88.048 32.936 88.272 33.544L83.136 35.464C82.88 34.536 82.432 33.416 81.792 32.104C81.152 30.792 80.48 29.592 79.776 28.504ZM106.032 26.536L111.696 28.216C110.992 29.592 110.24 30.92 109.44 32.2C108.672 33.448 107.952 34.536 107.28 35.464L102.384 33.88C102.8 33.208 103.232 32.44 103.68 31.576C104.128 30.712 104.56 29.848 104.976 28.984C105.392 28.088 105.744 27.272 106.032 26.536ZM103.728 52.264H109.584C109.584 52.264 109.568 52.552 109.536 53.128C109.536 53.672 109.504 54.136 109.44 54.52C109.28 57.56 109.072 60.072 108.816 62.056C108.592 64.04 108.32 65.608 108 66.76C107.68 67.88 107.28 68.696 106.8 69.208C106.256 69.816 105.68 70.248 105.072 70.504C104.496 70.792 103.808 70.984 103.008 71.08C102.304 71.176 101.392 71.224 100.272 71.224C99.184 71.256 98 71.24 96.72 71.176C96.688 70.344 96.512 69.416 96.192 68.392C95.904 67.4 95.52 66.536 95.04 65.8C96.096 65.864 97.088 65.912 98.016 65.944C98.976 65.976 99.696 65.992 100.176 65.992C100.56 65.992 100.88 65.96 101.136 65.896C101.392 65.832 101.632 65.688 101.856 65.464C102.144 65.144 102.4 64.552 102.624 63.688C102.848 62.792 103.04 61.496 103.2 59.8C103.392 58.072 103.568 55.832 103.728 53.08V52.264ZM90.384 53.992H96.384C96.16 56.104 95.792 58.056 95.28 59.848C94.768 61.608 93.968 63.224 92.88 64.696C91.792 66.136 90.272 67.416 88.32 68.536C86.4 69.656 83.92 70.616 80.88 71.416C80.688 70.904 80.416 70.344 80.064 69.736C79.712 69.128 79.312 68.52 78.864 67.912C78.448 67.336 78.048 66.856 77.664 66.472C80.32 65.896 82.432 65.224 84 64.456C85.6 63.656 86.832 62.744 87.696 61.72C88.56 60.664 89.184 59.496 89.568 58.216C89.952 56.936 90.224 55.528 90.384 53.992ZM92.256 26.104L98.304 27.16C97.536 30.52 96.576 33.784 95.424 36.952C94.304 40.12 92.896 43.112 91.2 45.928C89.536 48.744 87.52 51.288 85.152 53.56C82.784 55.832 79.968 57.784 76.704 59.416C76.448 58.968 76.112 58.456 75.696 57.88C75.28 57.304 74.848 56.744 74.4 56.2C73.952 55.624 73.536 55.144 73.152 54.76C76.128 53.352 78.704 51.64 80.88 49.624C83.056 47.576 84.88 45.304 86.352 42.808C87.856 40.312 89.088 37.656 90.048 34.84C91.008 31.992 91.744 29.08 92.256 26.104Z" fill="white"/>
</svg>
